<svg version="1.1"  xmlns="http://www.w3.org/2000/svg" xmlns:xlink="http://www.w3.org/1999/xlink" x="0px" y="0px"
	 viewBox="0 0 173.563 151.957" enable-background="new 0 0 173.563 151.957"
	 xml:space="preserve">
<g>

		<rect x="10.883" y="13.938" transform="matrix(0.9798 0.2002 -0.2002 0.9798 16.9666 -15.8344)" fill="#FFFFFF" width="151.796" height="124.08"/>
	<g>
		<path fill="#1D1D1B" d="M50.351,37.215c0.615-3.009-0.322-4.427-2.023-4.775l-3.794-0.775L38.52,61.103l3.401,0.695
			c1.963,0.401,3.592-0.902,4.207-3.91L50.351,37.215z M42.545,75.417c0.588-2.878-0.373-4.846-2.336-5.247l-3.401-0.695
			L30.5,100.351l3.794,0.775c1.701,0.348,3.146-0.72,3.761-3.729L42.545,75.417z M32.685,110.338l-13.214-2.7l17.803-87.133
			l13.214,2.699c5.103,1.043,10.979,4.969,8.706,16.09l-3.902,19.101c-0.963,4.711-3.201,7.661-7.135,8.901
			c3.105,2.815,4.007,6.407,3.071,10.986l-4.223,20.671C44.732,110.075,37.787,111.381,32.685,110.338"/>
	</g>
	<path fill="#1D1D1B" d="M74.206,50.54L62.758,89.225l5.887,1.202L74.206,50.54z M64.869,116.915l2.506-16.934l-7.327-1.496
		l-4.86,16.452l-8.112-1.658l26.569-85.342l9.813,2.005l-9.169,88.898L64.869,116.915z"/>
	<polygon fill="#1D1D1B" points="98.362,123.757 97.268,77.741 97.612,64.726 86.063,121.245 78.083,119.615 95.885,32.48
		105.043,34.352 104.436,80.023 103.805,93.114 115.379,36.463 123.36,38.095 105.557,125.228 	"/>
	<g>
		<path fill="#1D1D1B" d="M143.235,57.556c0.801-3.925,0.207-5.682-2.279-6.19l-3.795-0.775l-14.033,68.686l3.794,0.776
			c2.485,0.507,3.723-0.875,4.524-4.801L143.235,57.556z M125.573,129.318l-13.475-2.754l17.803-87.133l13.476,2.753
			c6.934,1.417,11.077,6.488,8.752,17.871l-11.495,56.257C138.307,127.695,132.507,130.735,125.573,129.318"/>
	</g>
</g>
</svg>
