<svg version="1.1"  xmlns="http://www.w3.org/2000/svg" xmlns:xlink="http://www.w3.org/1999/xlink" x="0px" y="0px" viewBox="0 0 211.953 152.545" enable-background="new 0 0 211.953 152.545"
	 xml:space="preserve">
<g>

		<rect x="9.397" y="17.084" transform="matrix(0.9822 -0.1878 0.1878 0.9822 -12.4384 21.2596)" fill="#FFFFFF" width="193.159" height="118.377"/>
	<g>
		<path fill="#1D1D1B" d="M43.894,132.399c-6.757,1.291-13.489-3.389-15.115-11.896L17.917,63.693
			c-1.603-8.384,2.903-15.34,9.661-16.633c7.007-1.339,12.511,3.704,14.114,12.088l3.038,15.891l-7.383,1.412l-3.206-16.768
			c-0.454-2.377-2.064-4.015-4.567-3.536c-2.628,0.502-3.52,2.618-3.065,4.995l11.196,58.561c0.455,2.377,2.065,4.015,4.692,3.513
			c2.503-0.479,3.396-2.595,2.941-4.972l-3.23-16.893l7.383-1.412l3.062,16.017C54.18,124.465,50.9,131.059,43.894,132.399"/>
		<path fill="#1D1D1B" d="M62.121,54.075c-0.431-2.253-2.141-3.741-4.394-3.31c-2.378,0.454-3.294,2.445-2.863,4.698l11.292,59.059
			c0.455,2.378,2.017,3.766,4.394,3.312c2.253-0.431,3.318-2.321,2.863-4.698L62.121,54.075z M72.297,126.967
			c-6.757,1.293-13.489-3.388-15.115-11.896L46.32,58.263c-1.603-8.384,2.904-15.341,9.661-16.633
			c6.756-1.292,13.512,3.512,15.115,11.896l10.862,56.809C83.584,118.844,79.054,125.676,72.297,126.967"/>
	</g>
	<polygon fill="#1D1D1B" points="109.645,118.79 91.971,78.588 87.546,66.983 97.882,121.038 90.249,122.497 74.316,39.162
		83.075,37.487 99.122,77.999 103.319,89.778 92.96,35.597 100.592,34.138 116.525,117.473 	"/>
	<polygon fill="#1D1D1B" points="122.46,39.295 136.671,113.622 128.037,115.272 113.826,40.946 106.068,42.429 104.346,33.42
		128.12,28.875 129.843,37.884 	"/>
	<g>
		<path fill="#1D1D1B" d="M149.604,38.126c-0.551-2.878-1.768-3.813-3.393-3.502l-3.629,0.694l5.67,29.655l3.252-0.622
			c1.877-0.359,2.74-1.95,2.166-4.953L149.604,38.126z M167.75,107.938c-2.877,0.551-5.211-4.19-6.216-9.446l-4.211-22.022
			c-0.479-2.503-2.063-4.015-4.065-3.632l-3.379,0.646l6.938,36.286l-8.759,1.675L132.123,28.11l12.639-2.417
			c4.88-0.933,11.49,0.397,13.523,11.033l3.899,20.396c0.838,4.38-0.191,7.819-3.062,10.443c3.635,1.38,6.088,4.025,6.948,8.529
			l3.853,20.146c0.718,3.754,1.596,6.31,3.002,8.245l0.455,2.377L167.75,107.938z"/>
	</g>
	<polygon fill="#1D1D1B" points="177.837,105.75 161.902,22.416 182.049,18.564 183.7,27.197 172.188,29.399 177.452,56.927
		185.585,55.371 187.234,64.005 179.102,65.56 184.82,95.467 196.332,93.265 197.982,101.899 	"/>
</g>
</svg>
