<svg version="1.1"  xmlns="http://www.w3.org/2000/svg" xmlns:xlink="http://www.w3.org/1999/xlink" x="0px" y="0px"
	 viewBox="0 0 316.465 285.307" enable-background="new 0 0 316.465 285.307"
	 xml:space="preserve">
<g>

		<rect x="52.728" y="11.839" transform="matrix(0.3288 -0.9444 0.9444 0.3288 -28.5197 245.1774)" fill="#FFFFFF" width="211.01" height="261.628"/>
	<g>
		<path fill="#1D1D1B" d="M58.319,198.675c-12.828-4.467-18.773-17.989-13.479-33.192l13.731-39.434l15.44,5.376l-13.978,40.146
			c-1.572,4.515-0.664,8.026,3.612,9.516c4.276,1.488,7.169-0.7,8.74-5.214l47.147-135.403l16.391,5.707L89.024,180.868
			C83.73,196.071,71.147,203.142,58.319,198.675"/>
	</g>
	<path fill="#1D1D1B" d="M153.393,96.208L122.32,165.56l10.69,3.722L153.393,96.208z M119.318,217.784l8.924-30.984l-13.302-4.633
		l-13.201,29.498l-14.728-5.129l71.004-152.667l17.815,6.203l-39.41,163.669L119.318,217.784z"/>
	<polygon fill="#1D1D1B" points="160.894,213.883 185.362,222.403 179.655,238.793 138.558,224.483 141.453,216.169 213.821,92.478
		189.116,83.875 195.073,66.771 236.405,81.164 233.51,89.479 	"/>
	<polygon fill="#1D1D1B" points="206.266,229.68 230.733,238.201 225.026,254.592 183.93,240.282 186.825,231.967 259.192,108.276
		234.488,99.673 240.442,82.57 281.777,96.962 278.881,105.276 	"/>
</g>
</svg>
