<svg version="1.1"  xmlns="http://www.w3.org/2000/svg" xmlns:xlink="http://www.w3.org/1999/xlink" x="0px" y="0px" viewBox="0 0 178.114 178.114" enable-background="new 0 0 178.114 178.114"
	 xml:space="preserve">
<g>
	<circle id="circle3" fill="#FFFFFF" cx="89.057" cy="89.057" r="89.057"/>

		<circle id="circle5" fill="#EA190E" stroke="#FF0000" stroke-width="0.1764" stroke-linecap="round" stroke-linejoin="round" cx="89.057" cy="89.057" r="85.723"/>

		<circle id="circle7" fill="#FFFFFF" stroke="#FF0000" stroke-width="0.1764" stroke-linecap="round" stroke-linejoin="round" cx="89.057" cy="89.057" r="59.72"/>
	<path id="path9" stroke="#000000" stroke-width="0.1764" stroke-linecap="round" stroke-linejoin="round" d="M129.786,81.913H48.37
		c-3.854,0-7.088,2.908-7.495,6.741c-0.407,3.833,2.144,7.355,5.912,8.165h83.704c2.753,0,5.282-1.515,6.583-3.94
		s1.162-5.371-0.361-7.663C135.188,82.923,132.526,81.654,129.786,81.913"/>
	<path id="path13" d="M54.397,58.175c1.14,0.126,2.107,0.551,2.902,1.275c0.795,0.725,1.371,1.583,1.727,2.573
		c0.166,0.437,0.289,1.009,0.368,1.719v4.992c-0.118,1.686-0.686,3.046-1.703,4.082c-1.017,1.035-2.253,1.586-3.708,1.652h-6.883
		l0.012-16.294H54.397z M50.504,71.264h2.777c0.562-0.081,1.041-0.276,1.436-0.583c0.396-0.307,0.732-0.845,1.009-1.614
		c0.15-0.473,0.194-2.196,0.131-5.169c-0.372-1.538-1.23-2.421-2.576-2.651h-2.777V71.264L50.504,71.264z"/>
	<path id="path15" d="M68.827,58.031c1.915,0.273,3.331,1.331,4.249,3.172c0.784,1.361,1.175,3.032,1.175,5.014v0.2
		c0,2.477-0.645,4.585-1.934,6.323c-0.918,1.168-2.215,1.823-3.893,1.963c-0.174,0.015-0.344,0.022-0.51,0.022
		c-1.741,0-3.201-0.688-4.379-2.063c-1.219-1.833-1.836-3.716-1.852-5.646c-0.008-0.163-0.012-0.326-0.012-0.488
		c0-2.61,0.622-4.77,1.864-6.478c0.831-0.932,1.697-1.527,2.599-1.786c0.625-0.185,1.25-0.277,1.875-0.277
		C68.285,57.986,68.558,58.001,68.827,58.031L68.827,58.031z M67.913,71.885c0.918-0.044,1.693-0.632,2.327-1.764
		c0.458-0.754,0.748-1.863,0.866-3.328c0.023-1.864-0.328-3.391-1.056-4.581c-0.593-0.828-1.25-1.291-1.97-1.387
		c-0.95,0.044-1.741,0.625-2.374,1.742c-0.451,0.784-0.744,1.908-0.878,3.372c-0.016,1.863,0.344,3.387,1.08,4.57
		C66.492,71.337,67.161,71.796,67.913,71.885L67.913,71.885z"/>
	<path id="path17" d="M80.312,58.252v11.003c0.15,1.405,0.997,2.189,2.54,2.352c1.52-0.155,2.374-0.928,2.563-2.318V58.252h3.359
		V70.11c-0.293,1.449-1.025,2.577-2.196,3.383c-1.044,0.688-2.112,1.05-3.204,1.087c-0.175,0.015-0.344,0.022-0.511,0.022
		c-1.622,0-2.963-0.439-4.023-1.32c-1.211-1.094-1.852-2.211-1.923-3.35v-11.68H80.312z"/>
	<path id="path19" d="M99.632,58.208l4.486,16.25h-3.405l-0.748-2.762h-4.808l-0.759,2.762h-3.442l4.439-16.25H99.632L99.632,58.208
		z M95.811,68.601h3.43l-1.661-6.344L95.811,68.601z"/>
	<path id="path21" d="M110.572,58.208l4.368,8.674v-8.674h3.228l0.012,16.283h-3.169l-5.305-10.26l-0.012,10.271h-3.265V58.208
		L110.572,58.208L110.572,58.208z"/>
	<path id="path23" d="M131.292,58.241v2.973H124.1v3.549h5.27v3.006h-5.27v3.716h7.501v3.006h-10.849l0.013-16.25H131.292z"/>
	<path id="path27" d="M70.379,103.872l-0.012,3.14l-7.477,10.049h7.691v3.051H58.819v-3.262l7.299-9.839h-6.931v-3.14
		L70.379,103.872L70.379,103.872z"/>
	<path id="path29" d="M83.235,103.65c1.915,0.273,3.331,1.33,4.249,3.172c0.784,1.361,1.176,3.032,1.176,5.014v0.2
		c0,2.478-0.646,4.585-1.935,6.322c-0.918,1.169-2.216,1.823-3.894,1.963c-0.174,0.015-0.344,0.022-0.51,0.022
		c-1.741,0-3.201-0.688-4.38-2.062c-1.219-1.834-1.836-3.717-1.852-5.646c-0.008-0.162-0.012-0.324-0.012-0.488
		c0-2.61,0.621-4.77,1.863-6.478c0.831-0.932,1.697-1.526,2.599-1.786c0.625-0.184,1.251-0.277,1.875-0.277
		C82.694,103.605,82.967,103.621,83.235,103.65L83.235,103.65z M82.322,117.504c0.918-0.044,1.692-0.632,2.326-1.764
		c0.459-0.754,0.748-1.863,0.866-3.328c0.023-1.863-0.328-3.39-1.056-4.58c-0.594-0.828-1.25-1.291-1.971-1.387
		c-0.949,0.044-1.74,0.625-2.374,1.741c-0.45,0.784-0.743,1.908-0.878,3.372c-0.016,1.863,0.344,3.387,1.08,4.57
		C80.901,116.957,81.57,117.416,82.322,117.504L82.322,117.504z"/>
	<path id="path31" d="M97.611,103.827l0.013,13.378h6.729l-0.013,2.906H94.324v-16.284H97.611z"/>
	<path id="path33" d="M113.139,103.827l0.012,13.378h6.729l-0.012,2.906h-10.017v-16.284H113.139z"/>
</g>
</svg>
